<mxfile host="65bd71144e">
    <diagram id="IhVA58hd-gJvz965n6gg" name="UML-Diagramm der Java Projekt">
        <mxGraphModel dx="2082" dy="905" grid="1" gridSize="10" guides="1" tooltips="1" connect="1" arrows="1" fold="1" page="1" pageScale="1" pageWidth="850" pageHeight="1100" math="0" shadow="0">
            <root>
                <mxCell id="0"/>
                <mxCell id="1" parent="0"/>
                <mxCell id="10" value="ApplicationConfig" style="html=1;overflow=block;blockSpacing=1;swimlane;childLayout=stackLayout;horizontal=1;horizontalStack=0;resizeParent=1;resizeParentMax=0;resizeLast=0;collapsible=0;fontStyle=0;marginBottom=0;swimlaneFillColor=#ffffff;startSize=25;whiteSpace=wrap;fontSize=13;align=center;spacing=0;strokeOpacity=100;strokeWidth=1.5;" vertex="1" parent="1">
                    <mxGeometry x="30" y="11" width="560" height="170" as="geometry"/>
                </mxCell>
                <mxCell id="11" value="&lt;font style=&quot;font-size: 13px;&quot;&gt;- service: AuthenticationService&lt;/font&gt;" style="part=1;html=1;resizeHeight=0;verticalAlign=middle;spacingLeft=4;spacingRight=4;overflow=hidden;rotatable=0;points=[[0,0.5],[1,0.5]];portConstraint=eastwest;swimlaneFillColor=#333333;strokeOpacity=100;whiteSpace=wrap;fontSize=11.7;align=center;" vertex="1" parent="10">
                    <mxGeometry y="25" width="560" height="59" as="geometry"/>
                </mxCell>
                <mxCell id="12" value="" style="line;strokeWidth=1;align=left;verticalAlign=middle;spacingTop=-1;spacingLeft=3;spacingRight=3;rotatable=0;labelPosition=right;points=[];portConstraint=eastwest;" vertex="1" parent="10">
                    <mxGeometry y="84" width="560" height="8" as="geometry"/>
                </mxCell>
                <mxCell id="13" value="&lt;div style=&quot;display: flex; justify-content: center; text-align: center; align-items: baseline; line-height: 1.25; margin-top: -2px; font-size: 13px;&quot;&gt;&lt;font style=&quot;font-size: 13px;&quot; color=&quot;#ffffff&quot;&gt;&lt;font style=&quot;font-size: 13px;&quot;&gt;+ register(request: RegisterRequest): ResponseEntity&amp;lt;AuthenticationResponse&amp;gt; &lt;br&gt;&lt;/font&gt;&lt;/font&gt;&lt;/div&gt;&lt;div style=&quot;display: flex; justify-content: center; text-align: center; align-items: baseline; line-height: 1.25; margin-top: -2px; font-size: 13px;&quot;&gt;&lt;font style=&quot;font-size: 13px;&quot; color=&quot;#ffffff&quot;&gt;&lt;font style=&quot;font-size: 13px;&quot;&gt;+ authenticate(request:AuthenticationRequest): ResponseEntity&amp;lt;AuthenticationResponse&amp;gt; &lt;/font&gt;&lt;/font&gt;&lt;/div&gt;" style="part=1;html=1;resizeHeight=0;verticalAlign=middle;spacingLeft=4;spacingRight=4;overflow=hidden;rotatable=0;points=[[0,0.5],[1,0.5]];portConstraint=eastwest;swimlaneFillColor=#333333;strokeOpacity=100;whiteSpace=wrap;fontSize=11.8;align=center;" vertex="1" parent="10">
                    <mxGeometry y="92" width="560" height="78" as="geometry"/>
                </mxCell>
                <mxCell id="14" value="AutheticationService" style="html=1;overflow=block;blockSpacing=1;swimlane;childLayout=stackLayout;horizontal=1;horizontalStack=0;resizeParent=1;resizeParentMax=0;resizeLast=0;collapsible=0;fontStyle=0;marginBottom=0;swimlaneFillColor=#ffffff;startSize=25;whiteSpace=wrap;fontSize=13;align=center;spacing=0;strokeOpacity=100;strokeWidth=1.5;" vertex="1" parent="1">
                    <mxGeometry x="15" y="221" width="440" height="220" as="geometry"/>
                </mxCell>
                <mxCell id="15" value="&lt;div style=&quot;display: flex; justify-content: center; text-align: center; align-items: baseline; line-height: 1.25; margin-top: -2px; font-size: 13px;&quot;&gt;&lt;font style=&quot;font-size: 13px;&quot; color=&quot;#ffffff&quot;&gt;&lt;font style=&quot;font-size: 13px;&quot;&gt;- repository: UserRepository&lt;br&gt;&lt;/font&gt;&lt;/font&gt;&lt;/div&gt;&lt;div style=&quot;display: flex; justify-content: center; text-align: center; align-items: baseline; line-height: 1.25; margin-top: -2px; font-size: 13px;&quot;&gt;&lt;span&gt;&lt;font style=&quot;font-size: 13px;&quot; color=&quot;#ffffff&quot;&gt;- tokenRepository: TokenRepository&lt;br&gt;&lt;/font&gt;&lt;/span&gt;&lt;/div&gt;&lt;div style=&quot;display: flex; justify-content: center; text-align: center; align-items: baseline; line-height: 1.25; margin-top: -2px; font-size: 13px;&quot;&gt;&lt;span&gt;&lt;font style=&quot;font-size: 13px;&quot; color=&quot;#ffffff&quot;&gt;- passwordEncoder: PasswordEncoder&lt;br&gt;&lt;/font&gt;&lt;/span&gt;&lt;/div&gt;&lt;div style=&quot;display: flex; justify-content: center; text-align: center; align-items: baseline; line-height: 1.25; margin-top: -2px; font-size: 13px;&quot;&gt;&lt;span&gt;&lt;font style=&quot;font-size: 13px;&quot; color=&quot;#ffffff&quot;&gt;- jwtService: JwtService&lt;br&gt;&lt;/font&gt;&lt;/span&gt;&lt;/div&gt;&lt;div style=&quot;display: flex; justify-content: center; text-align: center; align-items: baseline; line-height: 1.25; margin-top: -2px; font-size: 13px;&quot;&gt;&lt;font style=&quot;font-size: 13px;&quot; color=&quot;#ffffff&quot;&gt;&lt;font style=&quot;font-size: 13px;&quot;&gt;- authenticationManager: AuthenticationManager&lt;/font&gt;&lt;/font&gt;&lt;/div&gt;" style="part=1;html=1;resizeHeight=0;verticalAlign=middle;spacingLeft=4;spacingRight=4;overflow=hidden;rotatable=0;points=[[0,0.5],[1,0.5]];portConstraint=eastwest;swimlaneFillColor=#333333;strokeOpacity=100;whiteSpace=wrap;fontSize=11.7;align=center;" vertex="1" parent="14">
                    <mxGeometry y="25" width="440" height="101" as="geometry"/>
                </mxCell>
                <mxCell id="16" value="" style="line;strokeWidth=1;align=left;verticalAlign=middle;spacingTop=-1;spacingLeft=3;spacingRight=3;rotatable=0;labelPosition=right;points=[];portConstraint=eastwest;" vertex="1" parent="14">
                    <mxGeometry y="126" width="440" height="8" as="geometry"/>
                </mxCell>
                <mxCell id="17" value="&lt;div style=&quot;display: flex; justify-content: center; text-align: center; align-items: baseline; line-height: 1.25; margin-top: -2px;&quot;&gt;&lt;font style=&quot;font-size: 13px;&quot; color=&quot;#ffffff&quot;&gt;&lt;font style=&quot;font-size: 13px;&quot;&gt;+ register(request: RegisterRequest): AuthenticationResponse&lt;br&gt;&lt;/font&gt;&lt;/font&gt;&lt;/div&gt;&lt;div style=&quot;display: flex; justify-content: center; text-align: center; align-items: baseline; line-height: 1.25; margin-top: -2px;&quot;&gt;&lt;span&gt;&lt;font style=&quot;font-size: 13px;&quot; color=&quot;#ffffff&quot;&gt;+ authenticate(request: AuthenticationRequest): AuthenticationResponse&lt;br&gt;&lt;/font&gt;&lt;/span&gt;&lt;/div&gt;&lt;div style=&quot;display: flex; justify-content: center; text-align: center; align-items: baseline; line-height: 1.25; margin-top: -2px;&quot;&gt;&lt;span&gt;&lt;font style=&quot;font-size: 13px;&quot; color=&quot;#ffffff&quot;&gt;- saveUserToken(user: User, jwtToken: String): void&lt;br&gt;&lt;/font&gt;&lt;/span&gt;&lt;/div&gt;&lt;div style=&quot;display: flex; justify-content: center; text-align: center; align-items: baseline; line-height: 1.25; margin-top: -2px;&quot;&gt;&lt;font style=&quot;font-size: 13px;&quot; color=&quot;#ffffff&quot;&gt;&lt;font style=&quot;font-size: 13px;&quot;&gt;- revokeAllUserTokens(user: User): void&lt;/font&gt;&lt;/font&gt;&lt;/div&gt;" style="part=1;resizeHeight=0;align=left;verticalAlign=middle;spacingLeft=4;spacingRight=4;rotatable=0;points=[[0,0.5],[1,0.5]];portConstraint=eastwest;swimlaneFillColor=#333333;strokeOpacity=100;whiteSpace=wrap;overflow=block;blockSpacing=1;html=1;fontSize=13;" vertex="1" parent="14">
                    <mxGeometry y="134" width="440" height="86" as="geometry"/>
                </mxCell>
                <UserObject label="" lucidchartObjectId="wi00Xl8V9qbK" id="18">
                    <mxCell style="html=1;jettySize=18;whiteSpace=wrap;fontSize=13;strokeOpacity=100;strokeWidth=0.8;rounded=1;arcSize=24;edgeStyle=orthogonalEdgeStyle;startArrow=none;endArrow=block;endFill=1;exitX=0.5;exitY=-0.003;exitPerimeter=0;entryX=0.5;entryY=1.005;entryPerimeter=0;" edge="1" parent="1" source="14" target="10">
                        <mxGeometry width="100" height="100" relative="1" as="geometry">
                            <Array as="points"/>
                        </mxGeometry>
                    </mxCell>
                </UserObject>
                <mxCell id="19" value="JwtService" style="html=1;overflow=block;blockSpacing=1;swimlane;childLayout=stackLayout;horizontal=1;horizontalStack=0;resizeParent=1;resizeParentMax=0;resizeLast=0;collapsible=0;fontStyle=0;marginBottom=0;swimlaneFillColor=#ffffff;startSize=25;whiteSpace=wrap;fontSize=13;align=center;spacing=0;strokeOpacity=100;strokeWidth=1.5;" vertex="1" parent="1">
                    <mxGeometry x="30" y="520.7" width="500" height="207" as="geometry"/>
                </mxCell>
                <mxCell id="20" value="&lt;font style=&quot;font-size: 13px;&quot;&gt;- SECRET_KEY: String&lt;/font&gt;" style="part=1;html=1;resizeHeight=0;verticalAlign=middle;spacingLeft=4;spacingRight=4;overflow=hidden;rotatable=0;points=[[0,0.5],[1,0.5]];portConstraint=eastwest;swimlaneFillColor=#333333;strokeOpacity=100;whiteSpace=wrap;fontSize=11.7;align=center;" vertex="1" parent="19">
                    <mxGeometry y="25" width="500" height="45" as="geometry"/>
                </mxCell>
                <mxCell id="21" value="" style="line;strokeWidth=1;align=left;verticalAlign=middle;spacingTop=-1;spacingLeft=3;spacingRight=3;rotatable=0;labelPosition=right;points=[];portConstraint=eastwest;swimlaneFillColor=#333333;" vertex="1" parent="19">
                    <mxGeometry y="70" width="500" height="8" as="geometry"/>
                </mxCell>
                <mxCell id="22" value="&lt;div style=&quot;display: flex; justify-content: center; text-align: center; align-items: baseline; line-height: 1.25; margin-top: -2px; font-size: 13px;&quot;&gt;&lt;font style=&quot;font-size: 13px;&quot; color=&quot;#ffffff&quot;&gt;&lt;font style=&quot;font-size: 13px;&quot;&gt;+ extractUsername(token: String): String&lt;br&gt;&lt;/font&gt;&lt;/font&gt;&lt;/div&gt;&lt;div style=&quot;display: flex; justify-content: center; text-align: center; align-items: baseline; line-height: 1.25; margin-top: -2px; font-size: 13px;&quot;&gt;&lt;span&gt;&lt;font style=&quot;font-size: 13px;&quot; color=&quot;#ffffff&quot;&gt;+ extractClaim(token: String, claimsResolver: Function&amp;lt;Claims, T&amp;gt;): T&lt;br&gt;&lt;/font&gt;&lt;/span&gt;&lt;/div&gt;&lt;div style=&quot;display: flex; justify-content: center; text-align: center; align-items: baseline; line-height: 1.25; margin-top: -2px; font-size: 13px;&quot;&gt;&lt;span&gt;&lt;font style=&quot;font-size: 13px;&quot; color=&quot;#ffffff&quot;&gt;+ generateToken(userDetails: UserDetails): String&lt;br&gt;&lt;/font&gt;&lt;/span&gt;&lt;/div&gt;&lt;div style=&quot;display: flex; justify-content: center; text-align: center; align-items: baseline; line-height: 1.25; margin-top: -2px; font-size: 13px;&quot;&gt;&lt;span&gt;&lt;font style=&quot;font-size: 13px;&quot; color=&quot;#ffffff&quot;&gt;+ generateToken(extraClaims: Map&amp;lt;String, Object&amp;gt;, userDetails: UserDetails): String&lt;br&gt;&lt;/font&gt;&lt;/span&gt;&lt;/div&gt;&lt;div style=&quot;display: flex; justify-content: center; text-align: center; align-items: baseline; line-height: 1.25; margin-top: -2px; font-size: 13px;&quot;&gt;&lt;span&gt;&lt;font style=&quot;font-size: 13px;&quot; color=&quot;#ffffff&quot;&gt;+ isTokenValid(token: String, userDetails: UserDetails): boolean&lt;br&gt;&lt;/font&gt;&lt;/span&gt;&lt;/div&gt;&lt;div style=&quot;display: flex; justify-content: center; text-align: center; align-items: baseline; line-height: 1.25; margin-top: -2px; font-size: 13px;&quot;&gt;&lt;span&gt;&lt;font style=&quot;font-size: 13px;&quot; color=&quot;#ffffff&quot;&gt; - isTokenExpired(token: String): boolean&lt;br&gt;&lt;/font&gt;&lt;/span&gt;&lt;/div&gt;&lt;div style=&quot;display: flex; justify-content: center; text-align: center; align-items: baseline; line-height: 1.25; margin-top: -2px; font-size: 13px;&quot;&gt;&lt;span&gt;&lt;font style=&quot;font-size: 13px;&quot; color=&quot;#ffffff&quot;&gt; - extractExpiration(token: String): Date&lt;br&gt;&lt;/font&gt;&lt;/span&gt;&lt;/div&gt;&lt;div style=&quot;display: flex; justify-content: center; text-align: center; align-items: baseline; line-height: 1.25; margin-top: -2px; font-size: 13px;&quot;&gt;&lt;span&gt;&lt;font style=&quot;font-size: 13px;&quot; color=&quot;#ffffff&quot;&gt; - extractAllClaims(token: String): Claims&lt;br&gt;&lt;/font&gt;&lt;/span&gt;&lt;/div&gt;&lt;div style=&quot;display: flex; justify-content: center; text-align: center; align-items: baseline; line-height: 1.25; margin-top: -2px; font-size: 13px;&quot;&gt;&lt;font style=&quot;font-size: 13px;&quot; color=&quot;#ffffff&quot;&gt;&lt;font style=&quot;font-size: 13px;&quot;&gt; - getSignInKey(): Key&lt;/font&gt;&lt;/font&gt;&lt;/div&gt;" style="part=1;html=1;resizeHeight=0;verticalAlign=middle;spacingLeft=4;spacingRight=4;overflow=hidden;rotatable=0;points=[[0,0.5],[1,0.5]];portConstraint=eastwest;swimlaneFillColor=#ffffff;strokeOpacity=100;whiteSpace=wrap;fontSize=11.8;align=center;" vertex="1" parent="19">
                    <mxGeometry y="78" width="500" height="129" as="geometry"/>
                </mxCell>
                <UserObject label="" lucidchartObjectId="Pi00KXInt4H1" id="23">
                    <mxCell style="html=1;jettySize=18;whiteSpace=wrap;fontSize=13;strokeOpacity=100;strokeWidth=0.8;rounded=1;arcSize=24;edgeStyle=orthogonalEdgeStyle;startArrow=none;endArrow=block;endFill=1;exitX=0.5;exitY=-0.004;exitPerimeter=0;entryX=0.5;entryY=1.003;entryPerimeter=0;" edge="1" parent="1" source="19" target="14">
                        <mxGeometry width="100" height="100" relative="1" as="geometry">
                            <Array as="points"/>
                        </mxGeometry>
                    </mxCell>
                </UserObject>
                <mxCell id="24" value="JwtAuthenticationFilter" style="html=1;overflow=block;blockSpacing=1;swimlane;childLayout=stackLayout;horizontal=1;horizontalStack=0;resizeParent=1;resizeParentMax=0;resizeLast=0;collapsible=0;fontStyle=0;marginBottom=0;swimlaneFillColor=#ffffff;startSize=25;whiteSpace=wrap;fontSize=13;align=center;spacing=0;strokeOpacity=100;strokeWidth=1.5;" vertex="1" parent="1">
                    <mxGeometry x="15" y="750" width="270" height="201.25" as="geometry"/>
                </mxCell>
                <mxCell id="25" value="&lt;div style=&quot;display: flex; justify-content: center; text-align: center; align-items: baseline; line-height: 1.25; margin-top: -2px; font-size: 13px;&quot;&gt;&lt;font style=&quot;font-size: 13px;&quot; color=&quot;#ffffff&quot;&gt;&lt;font style=&quot;font-size: 13px;&quot;&gt;- jwtService: JwtService &lt;br&gt;&lt;/font&gt;&lt;/font&gt;&lt;/div&gt;&lt;div style=&quot;display: flex; justify-content: center; text-align: center; align-items: baseline; line-height: 1.25; margin-top: -2px; font-size: 13px;&quot;&gt;&lt;span&gt;&lt;font style=&quot;font-size: 13px;&quot; color=&quot;#ffffff&quot;&gt;- userDetailsService: UserDetailsService &lt;br&gt;&lt;/font&gt;&lt;/span&gt;&lt;/div&gt;&lt;div style=&quot;display: flex; justify-content: center; text-align: center; align-items: baseline; line-height: 1.25; margin-top: -2px; font-size: 13px;&quot;&gt;&lt;font style=&quot;font-size: 13px;&quot; color=&quot;#ffffff&quot;&gt;&lt;font style=&quot;font-size: 13px;&quot;&gt;- tokenRepository: TokenRepository&lt;/font&gt;&lt;/font&gt;&lt;/div&gt;" style="part=1;html=1;resizeHeight=0;verticalAlign=middle;spacingLeft=4;spacingRight=4;overflow=hidden;rotatable=0;points=[[0,0.5],[1,0.5]];portConstraint=eastwest;swimlaneFillColor=#333333;strokeOpacity=100;whiteSpace=wrap;fontSize=11.7;align=center;" vertex="1" parent="24">
                    <mxGeometry y="25" width="270" height="79" as="geometry"/>
                </mxCell>
                <mxCell id="26" value="" style="line;strokeWidth=1;align=left;verticalAlign=middle;spacingTop=-1;spacingLeft=3;spacingRight=3;rotatable=0;labelPosition=right;points=[];portConstraint=eastwest;" vertex="1" parent="24">
                    <mxGeometry y="104" width="270" height="8" as="geometry"/>
                </mxCell>
                <mxCell id="27" value="&lt;div style=&quot;display: flex; justify-content: center; text-align: center; align-items: baseline; line-height: 1.25; margin-top: -2px;&quot;&gt;&lt;font style=&quot;font-size: 13px;&quot; color=&quot;#ffffff&quot;&gt;&lt;font style=&quot;font-size: 13px;&quot;&gt;+doFilterInternal(request: HttpServletRequest, response: HttpServletResponse, filterChain: FilterChain): void&lt;/font&gt;&lt;/font&gt;&lt;br&gt;&lt;/div&gt;&lt;div style=&quot;display: flex; justify-content: center; text-align: center; align-items: baseline; font-size: 0; line-height: 1.25;margin-top: -2px;&quot;&gt;&lt;span&gt;&lt;/span&gt;&lt;/div&gt;" style="part=1;resizeHeight=0;align=left;verticalAlign=middle;spacingLeft=4;spacingRight=4;rotatable=0;points=[[0,0.5],[1,0.5]];portConstraint=eastwest;swimlaneFillColor=#333333;strokeOpacity=100;whiteSpace=wrap;overflow=block;blockSpacing=1;html=1;fontSize=13;" vertex="1" parent="24">
                    <mxGeometry y="112" width="270" height="89.25" as="geometry"/>
                </mxCell>
                <UserObject label="" lucidchartObjectId="~k00mDSOK-QS" id="28">
                    <mxCell style="html=1;jettySize=18;whiteSpace=wrap;fontSize=13;strokeOpacity=100;strokeWidth=0.8;rounded=1;arcSize=24;edgeStyle=orthogonalEdgeStyle;startArrow=none;endArrow=block;endFill=1;exitX=0.5;exitY=-0.004;exitPerimeter=0;entryX=0.5;entryY=1.004;entryPerimeter=0;" edge="1" parent="1" source="24" target="19">
                        <mxGeometry width="100" height="100" relative="1" as="geometry">
                            <Array as="points"/>
                        </mxGeometry>
                    </mxCell>
                </UserObject>
                <mxCell id="29" value="LogoutService" style="html=1;overflow=block;blockSpacing=1;swimlane;childLayout=stackLayout;horizontal=1;horizontalStack=0;resizeParent=1;resizeParentMax=0;resizeLast=0;collapsible=0;fontStyle=0;marginBottom=0;swimlaneFillColor=#ffffff;startSize=25;whiteSpace=wrap;fontSize=13;align=center;spacing=0;strokeOpacity=100;strokeWidth=1.5;" vertex="1" parent="1">
                    <mxGeometry x="170" y="980" width="640" height="120" as="geometry"/>
                </mxCell>
                <mxCell id="30" value="&lt;font style=&quot;font-size: 13px;&quot;&gt; - tokenRepository: TokenRepository&lt;/font&gt;" style="part=1;html=1;resizeHeight=0;verticalAlign=middle;spacingLeft=4;spacingRight=4;overflow=hidden;rotatable=0;points=[[0,0.5],[1,0.5]];portConstraint=eastwest;swimlaneFillColor=#333333;strokeOpacity=100;whiteSpace=wrap;fontSize=11.7;align=center;" vertex="1" parent="29">
                    <mxGeometry y="25" width="640" height="35" as="geometry"/>
                </mxCell>
                <mxCell id="31" value="" style="line;strokeWidth=1;align=left;verticalAlign=middle;spacingTop=-1;spacingLeft=3;spacingRight=3;rotatable=0;labelPosition=right;points=[];portConstraint=eastwest;" vertex="1" parent="29">
                    <mxGeometry y="60" width="640" height="8" as="geometry"/>
                </mxCell>
                <mxCell id="32" value="&lt;font style=&quot;font-size: 13px;&quot;&gt;+logout(request: HttpServletRequest, response: HttpServletResponse, authentication: Authentication): void&lt;/font&gt;" style="part=1;html=1;resizeHeight=0;verticalAlign=middle;spacingLeft=4;spacingRight=4;overflow=hidden;rotatable=0;points=[[0,0.5],[1,0.5]];portConstraint=eastwest;swimlaneFillColor=#ffffff;strokeOpacity=100;whiteSpace=wrap;fontSize=11.8;align=center;" vertex="1" parent="29">
                    <mxGeometry y="68" width="640" height="52" as="geometry"/>
                </mxCell>
                <UserObject label="" lucidchartObjectId="vl00rl7fIof9" id="33">
                    <mxCell style="html=1;jettySize=18;whiteSpace=wrap;fontSize=13;strokeOpacity=100;strokeWidth=0.8;rounded=1;arcSize=24;edgeStyle=orthogonalEdgeStyle;startArrow=none;endArrow=block;endFill=1;exitX=-0.002;exitY=0.5;exitPerimeter=0;entryX=1.003;entryY=0.5;entryPerimeter=0;" edge="1" parent="1" source="29" target="24">
                        <mxGeometry width="100" height="100" relative="1" as="geometry">
                            <Array as="points"/>
                        </mxGeometry>
                    </mxCell>
                </UserObject>
                <mxCell id="34" value="SecurityConfig" style="html=1;overflow=block;blockSpacing=1;swimlane;childLayout=stackLayout;horizontal=1;horizontalStack=0;resizeParent=1;resizeParentMax=0;resizeLast=0;collapsible=0;fontStyle=0;marginBottom=0;swimlaneFillColor=#ffffff;startSize=25;whiteSpace=wrap;fontSize=13;align=center;spacing=0;strokeOpacity=100;strokeWidth=1.5;" vertex="1" parent="1">
                    <mxGeometry x="550" y="585" width="360" height="130" as="geometry"/>
                </mxCell>
                <mxCell id="35" value="&lt;div style=&quot;display: flex; justify-content: center; text-align: center; align-items: baseline; line-height: 1.25; margin-top: -2px; font-size: 13px;&quot;&gt;&lt;font style=&quot;font-size: 13px;&quot; color=&quot;#ffffff&quot;&gt;&lt;font style=&quot;font-size: 13px;&quot;&gt;- jwtAuthFilter: JwtAuthenticationFilter&lt;br&gt;&lt;/font&gt;&lt;/font&gt;&lt;/div&gt;&lt;div style=&quot;display: flex; justify-content: center; text-align: center; align-items: baseline; line-height: 1.25; margin-top: -2px; font-size: 13px;&quot;&gt;&lt;span&gt;&lt;font style=&quot;font-size: 13px;&quot; color=&quot;#ffffff&quot;&gt;- authenticationProvider: AuthenticationProvider&lt;br&gt;&lt;/font&gt;&lt;/span&gt;&lt;/div&gt;&lt;div style=&quot;display: flex; justify-content: center; text-align: center; align-items: baseline; line-height: 1.25; margin-top: -2px; font-size: 13px;&quot;&gt;&lt;font style=&quot;font-size: 13px;&quot; color=&quot;#ffffff&quot;&gt;&lt;font style=&quot;font-size: 13px;&quot;&gt;- logoutHandler: LogoutHandler&lt;/font&gt;&lt;/font&gt;&lt;/div&gt;" style="part=1;html=1;resizeHeight=0;verticalAlign=middle;spacingLeft=4;spacingRight=4;overflow=hidden;rotatable=0;points=[[0,0.5],[1,0.5]];portConstraint=eastwest;swimlaneFillColor=#333333;strokeOpacity=100;whiteSpace=wrap;fontSize=11.7;align=center;" vertex="1" parent="34">
                    <mxGeometry y="25" width="360" height="55" as="geometry"/>
                </mxCell>
                <mxCell id="36" value="" style="line;strokeWidth=1;align=left;verticalAlign=middle;spacingTop=-1;spacingLeft=3;spacingRight=3;rotatable=0;labelPosition=right;points=[];portConstraint=eastwest;" vertex="1" parent="34">
                    <mxGeometry y="80" width="360" height="8" as="geometry"/>
                </mxCell>
                <mxCell id="37" value="&lt;font style=&quot;font-size: 13px;&quot;&gt;+securityFilterChain(http: HttpSecurity): SecurityFilterChain&lt;/font&gt;" style="part=1;resizeHeight=0;align=left;verticalAlign=middle;spacingLeft=4;spacingRight=4;rotatable=0;points=[[0,0.5],[1,0.5]];portConstraint=eastwest;swimlaneFillColor=#333333;strokeOpacity=100;whiteSpace=wrap;overflow=block;blockSpacing=1;html=1;fontSize=13;" vertex="1" parent="34">
                    <mxGeometry y="88" width="360" height="42" as="geometry"/>
                </mxCell>
                <UserObject label="" lucidchartObjectId="Nl00Ss.hIkD7" id="38">
                    <mxCell style="html=1;jettySize=18;whiteSpace=wrap;fontSize=13;strokeOpacity=100;strokeWidth=0.8;rounded=1;arcSize=24;edgeStyle=orthogonalEdgeStyle;startArrow=none;endArrow=block;endFill=1;exitX=0.5;exitY=1.007;exitPerimeter=0;entryX=0.509;entryY=-0.008;entryPerimeter=0;" edge="1" parent="1" source="34" target="29">
                        <mxGeometry width="100" height="100" relative="1" as="geometry">
                            <Array as="points"/>
                        </mxGeometry>
                    </mxCell>
                </UserObject>
                <mxCell id="39" value="User" style="html=1;overflow=block;blockSpacing=1;swimlane;childLayout=stackLayout;horizontal=1;horizontalStack=0;resizeParent=1;resizeParentMax=0;resizeLast=0;collapsible=0;fontStyle=0;marginBottom=0;swimlaneFillColor=#ffffff;startSize=25;whiteSpace=wrap;fontSize=13;align=center;spacing=0;strokeOpacity=100;strokeWidth=1.5;" vertex="1" parent="1">
                    <mxGeometry x="660" y="81" width="330" height="260" as="geometry"/>
                </mxCell>
                <mxCell id="40" value="&lt;div style=&quot;display: flex; justify-content: center; text-align: center; align-items: baseline; line-height: 1.25; margin-top: -2px; font-size: 13px;&quot;&gt;&lt;font style=&quot;font-size: 13px;&quot; color=&quot;#ffffff&quot;&gt;&lt;font style=&quot;font-size: 13px;&quot;&gt;- id: String&lt;br&gt;&lt;/font&gt;&lt;/font&gt;&lt;/div&gt;&lt;div style=&quot;display: flex; justify-content: center; text-align: center; align-items: baseline; line-height: 1.25; margin-top: -2px; font-size: 13px;&quot;&gt;&lt;span&gt;&lt;font style=&quot;font-size: 13px;&quot; color=&quot;#ffffff&quot;&gt;- email: String&lt;br&gt;&lt;/font&gt;&lt;/span&gt;&lt;/div&gt;&lt;div style=&quot;display: flex; justify-content: center; text-align: center; align-items: baseline; line-height: 1.25; margin-top: -2px; font-size: 13px;&quot;&gt;&lt;span&gt;&lt;font style=&quot;font-size: 13px;&quot; color=&quot;#ffffff&quot;&gt;- password: String&lt;br&gt;&lt;/font&gt;&lt;/span&gt;&lt;/div&gt;&lt;div style=&quot;display: flex; justify-content: center; text-align: center; align-items: baseline; line-height: 1.25; margin-top: -2px; font-size: 13px;&quot;&gt;&lt;span&gt;&lt;font style=&quot;font-size: 13px;&quot; color=&quot;#ffffff&quot;&gt;- firstName: String&lt;br&gt;&lt;/font&gt;&lt;/span&gt;&lt;/div&gt;&lt;div style=&quot;display: flex; justify-content: center; text-align: center; align-items: baseline; line-height: 1.25; margin-top: -2px; font-size: 13px;&quot;&gt;&lt;span&gt;&lt;font style=&quot;font-size: 13px;&quot; color=&quot;#ffffff&quot;&gt;- lastName: String&lt;br&gt;&lt;/font&gt;&lt;/span&gt;&lt;/div&gt;&lt;div style=&quot;display: flex; justify-content: center; text-align: center; align-items: baseline; line-height: 1.25; margin-top: -2px; font-size: 13px;&quot;&gt;&lt;font style=&quot;font-size: 13px;&quot; color=&quot;#ffffff&quot;&gt;&lt;font style=&quot;font-size: 13px;&quot;&gt;- role: Role&lt;/font&gt;&lt;/font&gt;&lt;/div&gt;" style="part=1;html=1;resizeHeight=0;verticalAlign=middle;spacingLeft=4;spacingRight=4;overflow=hidden;rotatable=0;points=[[0,0.5],[1,0.5]];portConstraint=eastwest;swimlaneFillColor=#333333;strokeOpacity=100;whiteSpace=wrap;fontSize=11.7;align=center;" vertex="1" parent="39">
                    <mxGeometry y="25" width="330" height="106" as="geometry"/>
                </mxCell>
                <mxCell id="41" value="" style="line;strokeWidth=1;align=left;verticalAlign=middle;spacingTop=-1;spacingLeft=3;spacingRight=3;rotatable=0;labelPosition=right;points=[];portConstraint=eastwest;" vertex="1" parent="39">
                    <mxGeometry y="131" width="330" height="8" as="geometry"/>
                </mxCell>
                <mxCell id="42" value="&lt;div style=&quot;display: flex; justify-content: center; text-align: center; align-items: baseline; font-size: 0; line-height: 1.25;margin-top: -2px;&quot;&gt;&lt;span&gt;&lt;span style=&quot;font-size: 11.8px;&quot;&gt;&lt;font color=&quot;#ffffff&quot;&gt;+ getAuthorities(): Collection&amp;lt;? extends GrantedAuthority&amp;gt;&lt;br&gt;&lt;/font&gt;&lt;/span&gt;&lt;/span&gt;&lt;/div&gt;&lt;div style=&quot;display: flex; justify-content: center; text-align: center; align-items: baseline; font-size: 0; line-height: 1.25;margin-top: -2px;&quot;&gt;&lt;span&gt;&lt;span style=&quot;font-size: 11.8px;&quot;&gt;&lt;font color=&quot;#ffffff&quot;&gt;+ getPassword(): String&lt;br&gt;&lt;/font&gt;&lt;/span&gt;&lt;/span&gt;&lt;/div&gt;&lt;div style=&quot;display: flex; justify-content: center; text-align: center; align-items: baseline; font-size: 0; line-height: 1.25;margin-top: -2px;&quot;&gt;&lt;span&gt;&lt;span style=&quot;font-size: 11.8px;&quot;&gt;&lt;font color=&quot;#ffffff&quot;&gt;+ getUsername(): String&lt;br&gt;&lt;/font&gt;&lt;/span&gt;&lt;/span&gt;&lt;/div&gt;&lt;div style=&quot;display: flex; justify-content: center; text-align: center; align-items: baseline; font-size: 0; line-height: 1.25;margin-top: -2px;&quot;&gt;&lt;span&gt;&lt;span style=&quot;font-size: 11.8px;&quot;&gt;&lt;font color=&quot;#ffffff&quot;&gt;+ isAccountNonExpired(): boolean&lt;br&gt;&lt;/font&gt;&lt;/span&gt;&lt;/span&gt;&lt;/div&gt;&lt;div style=&quot;display: flex; justify-content: center; text-align: center; align-items: baseline; font-size: 0; line-height: 1.25;margin-top: -2px;&quot;&gt;&lt;span&gt;&lt;span style=&quot;font-size: 11.8px;&quot;&gt;&lt;font color=&quot;#ffffff&quot;&gt;+ isAccountNonLocked(): boolean&lt;br&gt;&lt;/font&gt;&lt;/span&gt;&lt;/span&gt;&lt;/div&gt;&lt;div style=&quot;display: flex; justify-content: center; text-align: center; align-items: baseline; font-size: 0; line-height: 1.25;margin-top: -2px;&quot;&gt;&lt;span&gt;&lt;span style=&quot;font-size: 11.8px;&quot;&gt;&lt;font color=&quot;#ffffff&quot;&gt;+ isCredentialsNonExpired(): boolean&lt;br&gt;&lt;/font&gt;&lt;/span&gt;&lt;/span&gt;&lt;/div&gt;&lt;div style=&quot;display: flex; justify-content: center; text-align: center; align-items: baseline; font-size: 0; line-height: 1.25;margin-top: -2px;&quot;&gt;&lt;span&gt;&lt;span style=&quot;font-size: 11.8px;&quot;&gt;&lt;font color=&quot;#ffffff&quot;&gt;+ isEnabled(): boolean&lt;/font&gt;&lt;/span&gt;&lt;/span&gt;&lt;/div&gt;" style="part=1;resizeHeight=0;align=left;verticalAlign=middle;spacingLeft=4;spacingRight=4;rotatable=0;points=[[0,0.5],[1,0.5]];portConstraint=eastwest;swimlaneFillColor=#333333;strokeOpacity=100;whiteSpace=wrap;overflow=block;blockSpacing=1;html=1;fontSize=13;" vertex="1" parent="39">
                    <mxGeometry y="139" width="330" height="121" as="geometry"/>
                </mxCell>
                <UserObject label="" lucidchartObjectId="Ao000E9Uj5xn" id="43">
                    <mxCell style="html=1;jettySize=18;whiteSpace=wrap;fontSize=13;strokeOpacity=100;strokeWidth=0.8;rounded=1;arcSize=24;edgeStyle=orthogonalEdgeStyle;startArrow=none;endArrow=block;endFill=1;exitX=0.5;exitY=1.003;exitPerimeter=0;entryX=0.5;entryY=-0.007;entryPerimeter=0;" edge="1" parent="1" source="39" target="34">
                        <mxGeometry width="100" height="100" relative="1" as="geometry">
                            <Array as="points"/>
                        </mxGeometry>
                    </mxCell>
                </UserObject>
                <mxCell id="44" value="UserRepository" style="html=1;overflow=block;blockSpacing=1;swimlane;childLayout=stackLayout;horizontal=1;horizontalStack=0;resizeParent=1;resizeParentMax=0;resizeLast=0;collapsible=0;fontStyle=0;marginBottom=0;swimlaneFillColor=#ffffff;startSize=25;whiteSpace=wrap;fontSize=13;align=center;spacing=0;strokeOpacity=100;fillOpacity=100;strokeWidth=1.5;" vertex="1" parent="1">
                    <mxGeometry x="1260" y="81" width="300" height="107.25" as="geometry"/>
                </mxCell>
                <mxCell id="45" value="&lt;div style=&quot;display: flex; justify-content: center; text-align: center; align-items: baseline; font-size: 0; line-height: 1.25;margin-top: -2px;&quot;&gt;&lt;span&gt;&lt;span style=&quot;font-size: 13px;&quot;&gt;&lt;font color=&quot;#ffffff&quot;&gt;+ findByEmail(email: String): Optional&amp;lt;User&amp;gt;&lt;/font&gt;&lt;br&gt;&lt;/span&gt;&lt;/span&gt;&lt;/div&gt;&lt;div style=&quot;display: flex; justify-content: center; text-align: center; align-items: baseline; font-size: 0; line-height: 1.25;margin-top: -2px;&quot;&gt;&lt;span&gt;&lt;/span&gt;&lt;/div&gt;" style="part=1;html=1;resizeHeight=0;verticalAlign=middle;spacingLeft=4;spacingRight=4;overflow=hidden;rotatable=0;points=[[0,0.5],[1,0.5]];portConstraint=eastwest;swimlaneFillColor=#ffffff;strokeOpacity=100;fillOpacity=100;whiteSpace=wrap;fontSize=13;align=center;" vertex="1" parent="44">
                    <mxGeometry y="25" width="300" height="82.25" as="geometry"/>
                </mxCell>
                <UserObject label="" lucidchartObjectId="2q00-SmuUDA8" id="46">
                    <mxCell style="html=1;jettySize=18;whiteSpace=wrap;fontSize=13;strokeOpacity=100;strokeWidth=0.8;rounded=1;arcSize=24;edgeStyle=orthogonalEdgeStyle;startArrow=none;endArrow=block;endFill=1;exitX=0.5;exitY=1.008;exitPerimeter=0;entryX=0.5;entryY=-0.003;entryPerimeter=0;" edge="1" parent="1" source="44" target="39">
                        <mxGeometry width="100" height="100" relative="1" as="geometry">
                            <Array as="points"/>
                        </mxGeometry>
                    </mxCell>
                </UserObject>
                <mxCell id="47" value="Role" style="html=1;overflow=block;blockSpacing=1;swimlane;childLayout=stackLayout;horizontal=1;horizontalStack=0;resizeParent=1;resizeParentMax=0;resizeLast=0;collapsible=0;fontStyle=0;marginBottom=0;swimlaneFillColor=#ffffff;startSize=25;whiteSpace=wrap;fontSize=13;align=center;spacing=0;strokeOpacity=100;fillOpacity=100;strokeWidth=1.5;" vertex="1" parent="1">
                    <mxGeometry x="1350" y="270" width="300" height="107.25" as="geometry"/>
                </mxCell>
                <mxCell id="48" value="&lt;div style=&quot;display: flex; justify-content: center; text-align: center; align-items: baseline; font-size: 0; line-height: 1.25;margin-top: -2px;&quot;&gt;&lt;span&gt;&lt;span style=&quot;font-size: 13px;&quot;&gt;&lt;font color=&quot;#ffffff&quot;&gt;USER&lt;br&gt;&lt;/font&gt;&lt;/span&gt;&lt;/span&gt;&lt;/div&gt;&lt;div style=&quot;display: flex; justify-content: center; text-align: center; align-items: baseline; font-size: 0; line-height: 1.25;margin-top: -2px;&quot;&gt;&lt;span&gt;&lt;span style=&quot;font-size: 13px;&quot;&gt;&lt;font color=&quot;#ffffff&quot;&gt;ADMIN&lt;/font&gt;&lt;/span&gt;&lt;/span&gt;&lt;/div&gt;" style="part=1;html=1;resizeHeight=0;verticalAlign=middle;spacingLeft=4;spacingRight=4;overflow=hidden;rotatable=0;points=[[0,0.5],[1,0.5]];portConstraint=eastwest;swimlaneFillColor=#ffffff;strokeOpacity=100;fillOpacity=100;whiteSpace=wrap;fontSize=13;align=center;" vertex="1" parent="47">
                    <mxGeometry y="25" width="300" height="82.25" as="geometry"/>
                </mxCell>
                <UserObject label="" lucidchartObjectId="zr00e~IeT~Bm" id="49">
                    <mxCell style="html=1;jettySize=18;whiteSpace=wrap;fontSize=13;strokeOpacity=100;strokeWidth=0.8;rounded=1;arcSize=24;edgeStyle=orthogonalEdgeStyle;startArrow=none;endArrow=block;endFill=1;exitX=0.5;exitY=-0.008;exitPerimeter=0;entryX=0.555;entryY=1.008;entryPerimeter=0;" edge="1" parent="1" source="47" target="44">
                        <mxGeometry width="100" height="100" relative="1" as="geometry">
                            <Array as="points"/>
                        </mxGeometry>
                    </mxCell>
                </UserObject>
                <mxCell id="50" value="MovieistApplication" style="html=1;overflow=block;blockSpacing=1;swimlane;childLayout=stackLayout;horizontal=1;horizontalStack=0;resizeParent=1;resizeParentMax=0;resizeLast=0;collapsible=0;fontStyle=0;marginBottom=0;swimlaneFillColor=#333333;startSize=25;whiteSpace=wrap;fontSize=13;align=center;spacing=0;strokeOpacity=100;fillOpacity=100;strokeWidth=1.5;" vertex="1" parent="1">
                    <mxGeometry x="1620" y="951.38" width="300" height="107.25" as="geometry"/>
                </mxCell>
                <mxCell id="51" value="&lt;div style=&quot;display: flex; justify-content: center; text-align: center; align-items: baseline; font-size: 0; line-height: 1.25;margin-top: -2px;&quot;&gt;&lt;span&gt;&lt;span style=&quot;font-size: 13px;&quot;&gt;&lt;font color=&quot;#ffffff&quot;&gt;+ main(args: String[]): void&lt;br&gt;&lt;/font&gt;&lt;/span&gt;&lt;/span&gt;&lt;/div&gt;&lt;div style=&quot;display: flex; justify-content: center; text-align: center; align-items: baseline; font-size: 0; line-height: 1.25;margin-top: -2px;&quot;&gt;&lt;span&gt;&lt;span style=&quot;font-size: 13px;&quot;&gt;&lt;font color=&quot;#ffffff&quot;&gt;+ corsConfigurer(): WebMvcConfigurer&lt;/font&gt;&lt;/span&gt;&lt;/span&gt;&lt;/div&gt;" style="part=1;html=1;resizeHeight=0;verticalAlign=middle;spacingLeft=4;spacingRight=4;overflow=hidden;rotatable=0;points=[[0,0.5],[1,0.5]];portConstraint=eastwest;swimlaneFillColor=#ffffff;strokeOpacity=100;fillOpacity=100;whiteSpace=wrap;fontSize=13;align=center;" vertex="1" parent="50">
                    <mxGeometry y="25" width="300" height="82.25" as="geometry"/>
                </mxCell>
                <mxCell id="53" value="MovieController" style="html=1;overflow=block;blockSpacing=1;swimlane;childLayout=stackLayout;horizontal=1;horizontalStack=0;resizeParent=1;resizeParentMax=0;resizeLast=0;collapsible=0;fontStyle=0;marginBottom=0;swimlaneFillColor=#ffffff;startSize=25;whiteSpace=wrap;fontSize=13;align=center;spacing=0;strokeOpacity=100;strokeWidth=1.5;" vertex="1" parent="1">
                    <mxGeometry x="935" y="430" width="430" height="140" as="geometry"/>
                </mxCell>
                <mxCell id="54" value="&lt;font style=&quot;font-size: 13px;&quot;&gt;- service: MovieService&lt;/font&gt;" style="part=1;html=1;resizeHeight=0;verticalAlign=middle;spacingLeft=4;spacingRight=4;overflow=hidden;rotatable=0;points=[[0,0.5],[1,0.5]];portConstraint=eastwest;swimlaneFillColor=#ffffff;strokeOpacity=100;whiteSpace=wrap;fontSize=11.7;align=center;" vertex="1" parent="53">
                    <mxGeometry y="25" width="430" height="42" as="geometry"/>
                </mxCell>
                <mxCell id="55" value="" style="line;strokeWidth=1;align=left;verticalAlign=middle;spacingTop=-1;spacingLeft=3;spacingRight=3;rotatable=0;labelPosition=right;points=[];portConstraint=eastwest;swimlaneFillColor=#333333;" vertex="1" parent="53">
                    <mxGeometry y="67" width="430" height="8" as="geometry"/>
                </mxCell>
                <mxCell id="56" value="&lt;div style=&quot;display: flex; justify-content: center; text-align: center; align-items: baseline; line-height: 1.25; margin-top: -2px; font-size: 13px;&quot;&gt;&lt;font style=&quot;font-size: 13px;&quot; color=&quot;#ffffff&quot;&gt;&lt;font style=&quot;font-size: 13px;&quot;&gt;+ getMovies(): ResponseEntity&amp;lt;List&amp;lt;Movie&amp;gt;&amp;gt;&lt;br&gt;&lt;/font&gt;&lt;/font&gt;&lt;/div&gt;&lt;div style=&quot;display: flex; justify-content: center; text-align: center; align-items: baseline; line-height: 1.25; margin-top: -2px; font-size: 13px;&quot;&gt;&lt;font style=&quot;font-size: 13px;&quot; color=&quot;#ffffff&quot;&gt;&lt;font style=&quot;font-size: 13px;&quot;&gt;+ getSingleMovie(imdbId: String): ResponseEntity&amp;lt;Optional&amp;lt;Movie&amp;gt;&amp;gt;&lt;/font&gt;&lt;/font&gt;&lt;/div&gt;" style="part=1;html=1;resizeHeight=0;verticalAlign=middle;spacingLeft=4;spacingRight=4;overflow=hidden;rotatable=0;points=[[0,0.5],[1,0.5]];portConstraint=eastwest;swimlaneFillColor=#ffffff;strokeOpacity=100;whiteSpace=wrap;fontSize=11.8;align=center;" vertex="1" parent="53">
                    <mxGeometry y="75" width="430" height="65" as="geometry"/>
                </mxCell>
                <UserObject label="" lucidchartObjectId="qz005-vwxkv5" id="57">
                    <mxCell style="html=1;jettySize=18;whiteSpace=wrap;fontSize=13;strokeOpacity=100;strokeWidth=0.8;rounded=1;arcSize=24;edgeStyle=orthogonalEdgeStyle;startArrow=none;endArrow=block;endFill=1;exitX=0.5;exitY=-0.008;exitPerimeter=0;entryX=0.5;entryY=1.008;entryPerimeter=0;" edge="1" parent="1" source="53" target="47">
                        <mxGeometry width="100" height="100" relative="1" as="geometry">
                            <Array as="points"/>
                        </mxGeometry>
                    </mxCell>
                </UserObject>
                <mxCell id="58" value="MovieService" style="html=1;overflow=block;blockSpacing=1;swimlane;childLayout=stackLayout;horizontal=1;horizontalStack=0;resizeParent=1;resizeParentMax=0;resizeLast=0;collapsible=0;fontStyle=0;marginBottom=0;swimlaneFillColor=#ffffff;startSize=25;whiteSpace=wrap;fontSize=13;align=center;spacing=0;strokeOpacity=100;strokeWidth=1.5;" vertex="1" parent="1">
                    <mxGeometry x="980" y="630" width="340" height="120" as="geometry"/>
                </mxCell>
                <mxCell id="59" value="&lt;font style=&quot;font-size: 13px;&quot;&gt;- repository: MovieRepository&lt;/font&gt;" style="part=1;html=1;resizeHeight=0;verticalAlign=middle;spacingLeft=4;spacingRight=4;overflow=hidden;rotatable=0;points=[[0,0.5],[1,0.5]];portConstraint=eastwest;swimlaneFillColor=#ffffff;strokeOpacity=100;whiteSpace=wrap;fontSize=11.7;align=center;" vertex="1" parent="58">
                    <mxGeometry y="25" width="340" height="35" as="geometry"/>
                </mxCell>
                <mxCell id="60" value="" style="line;strokeWidth=1;align=left;verticalAlign=middle;spacingTop=-1;spacingLeft=3;spacingRight=3;rotatable=0;labelPosition=right;points=[];portConstraint=eastwest;" vertex="1" parent="58">
                    <mxGeometry y="60" width="340" height="8" as="geometry"/>
                </mxCell>
                <mxCell id="61" value="&lt;div style=&quot;display: flex; justify-content: center; text-align: center; align-items: baseline; line-height: 1.25; margin-top: -2px; font-size: 13px;&quot;&gt;&lt;font style=&quot;font-size: 13px;&quot; color=&quot;#ffffff&quot;&gt;&lt;font style=&quot;font-size: 13px;&quot;&gt;+ findAllMovies(): List&amp;lt;Movie&amp;gt;&lt;br&gt;&lt;/font&gt;&lt;/font&gt;&lt;/div&gt;&lt;div style=&quot;display: flex; justify-content: center; text-align: center; align-items: baseline; line-height: 1.25; margin-top: -2px; font-size: 13px;&quot;&gt;&lt;font style=&quot;font-size: 13px;&quot; color=&quot;#ffffff&quot;&gt;&lt;font style=&quot;font-size: 13px;&quot;&gt;+ findMovieByImdbId(imdbId: String): Optional&amp;lt;Movie&amp;gt;&lt;/font&gt;&lt;/font&gt;&lt;/div&gt;" style="part=1;html=1;resizeHeight=0;verticalAlign=middle;spacingLeft=4;spacingRight=4;overflow=hidden;rotatable=0;points=[[0,0.5],[1,0.5]];portConstraint=eastwest;swimlaneFillColor=#333333;strokeOpacity=100;whiteSpace=wrap;fontSize=11.8;align=center;" vertex="1" parent="58">
                    <mxGeometry y="68" width="340" height="52" as="geometry"/>
                </mxCell>
                <UserObject label="" lucidchartObjectId="8A00EGM.nSax" id="62">
                    <mxCell style="html=1;jettySize=18;whiteSpace=wrap;fontSize=13;strokeOpacity=100;strokeWidth=0.8;rounded=1;arcSize=24;edgeStyle=orthogonalEdgeStyle;startArrow=none;endArrow=block;endFill=1;exitX=0.5;exitY=-0.008;exitPerimeter=0;entryX=0.5;entryY=1.008;entryPerimeter=0;" edge="1" parent="1" source="58" target="53">
                        <mxGeometry width="100" height="100" relative="1" as="geometry">
                            <Array as="points"/>
                        </mxGeometry>
                    </mxCell>
                </UserObject>
                <mxCell id="63" value="MovieistRepository" style="html=1;overflow=block;blockSpacing=1;swimlane;childLayout=stackLayout;horizontal=1;horizontalStack=0;resizeParent=1;resizeParentMax=0;resizeLast=0;collapsible=0;fontStyle=0;marginBottom=0;swimlaneFillColor=#333333;startSize=25;whiteSpace=wrap;fontSize=13;align=center;spacing=0;strokeOpacity=100;fillOpacity=100;strokeWidth=1.5;" vertex="1" parent="1">
                    <mxGeometry x="960" y="816.75" width="350" height="100" as="geometry"/>
                </mxCell>
                <mxCell id="64" value="+ findMovieByImdbId(imdbId: String): Optional&amp;lt;Movie&amp;gt;" style="part=1;html=1;resizeHeight=0;verticalAlign=middle;spacingLeft=4;spacingRight=4;overflow=hidden;rotatable=0;points=[[0,0.5],[1,0.5]];portConstraint=eastwest;swimlaneFillColor=#333333;strokeOpacity=100;fillOpacity=100;whiteSpace=wrap;fontSize=13;align=center;" vertex="1" parent="63">
                    <mxGeometry y="25" width="350" height="75" as="geometry"/>
                </mxCell>
                <UserObject label="" lucidchartObjectId="4B00XcqS~BsU" id="65">
                    <mxCell style="html=1;jettySize=18;whiteSpace=wrap;fontSize=13;strokeOpacity=100;strokeWidth=0.8;rounded=1;arcSize=24;edgeStyle=orthogonalEdgeStyle;startArrow=none;endArrow=block;endFill=1;exitX=0.5;exitY=-0.008;exitPerimeter=0;entryX=0.5;entryY=1.008;entryPerimeter=0;" edge="1" parent="1" source="63" target="58">
                        <mxGeometry width="100" height="100" relative="1" as="geometry">
                            <Array as="points"/>
                        </mxGeometry>
                    </mxCell>
                </UserObject>
                <mxCell id="66" value="Movie" style="html=1;overflow=block;blockSpacing=1;swimlane;childLayout=stackLayout;horizontal=1;horizontalStack=0;resizeParent=1;resizeParentMax=0;resizeLast=0;collapsible=0;fontStyle=0;marginBottom=0;swimlaneFillColor=#ffffff;startSize=25;whiteSpace=wrap;fontSize=13;align=center;spacing=0;strokeOpacity=100;strokeWidth=1.5;" vertex="1" parent="1">
                    <mxGeometry x="1540" y="504.00000000000006" width="490" height="250" as="geometry"/>
                </mxCell>
                <mxCell id="67" value="&lt;div style=&quot;display: flex; justify-content: center; text-align: center; align-items: baseline; line-height: 1.25; margin-top: -2px; font-size: 13px;&quot;&gt;&lt;font style=&quot;font-size: 13px;&quot; color=&quot;#ffffff&quot;&gt;&lt;font style=&quot;font-size: 13px;&quot;&gt;- id: ObjectId&lt;br&gt;&lt;/font&gt;&lt;/font&gt;&lt;/div&gt;&lt;div style=&quot;display: flex; justify-content: center; text-align: center; align-items: baseline; line-height: 1.25; margin-top: -2px; font-size: 13px;&quot;&gt;&lt;span&gt;&lt;font style=&quot;font-size: 13px;&quot; color=&quot;#ffffff&quot;&gt;- imdbId: String&lt;br&gt;&lt;/font&gt;&lt;/span&gt;&lt;/div&gt;&lt;div style=&quot;display: flex; justify-content: center; text-align: center; align-items: baseline; line-height: 1.25; margin-top: -2px; font-size: 13px;&quot;&gt;&lt;span&gt;&lt;font style=&quot;font-size: 13px;&quot; color=&quot;#ffffff&quot;&gt;- title: String&lt;br&gt;&lt;/font&gt;&lt;/span&gt;&lt;/div&gt;&lt;div style=&quot;display: flex; justify-content: center; text-align: center; align-items: baseline; line-height: 1.25; margin-top: -2px; font-size: 13px;&quot;&gt;&lt;span&gt;&lt;font style=&quot;font-size: 13px;&quot; color=&quot;#ffffff&quot;&gt;- releaseDate: String&lt;br&gt;&lt;/font&gt;&lt;/span&gt;&lt;/div&gt;&lt;div style=&quot;display: flex; justify-content: center; text-align: center; align-items: baseline; line-height: 1.25; margin-top: -2px; font-size: 13px;&quot;&gt;&lt;span&gt;&lt;font style=&quot;font-size: 13px;&quot; color=&quot;#ffffff&quot;&gt;- trailerLink: String&lt;br&gt;&lt;/font&gt;&lt;/span&gt;&lt;/div&gt;&lt;div style=&quot;display: flex; justify-content: center; text-align: center; align-items: baseline; line-height: 1.25; margin-top: -2px; font-size: 13px;&quot;&gt;&lt;span&gt;&lt;font style=&quot;font-size: 13px;&quot; color=&quot;#ffffff&quot;&gt;- poster: String&lt;br&gt;&lt;/font&gt;&lt;/span&gt;&lt;/div&gt;&lt;div style=&quot;display: flex; justify-content: center; text-align: center; align-items: baseline; line-height: 1.25; margin-top: -2px; font-size: 13px;&quot;&gt;&lt;span&gt;&lt;font style=&quot;font-size: 13px;&quot; color=&quot;#ffffff&quot;&gt;- backdrops: List&amp;lt;String&amp;gt;&lt;br&gt;&lt;/font&gt;&lt;/span&gt;&lt;/div&gt;&lt;div style=&quot;display: flex; justify-content: center; text-align: center; align-items: baseline; line-height: 1.25; margin-top: -2px; font-size: 13px;&quot;&gt;&lt;span&gt;&lt;font style=&quot;font-size: 13px;&quot; color=&quot;#ffffff&quot;&gt;- genres: List&amp;lt;String&amp;gt;&lt;br&gt;&lt;/font&gt;&lt;/span&gt;&lt;/div&gt;&lt;div style=&quot;display: flex; justify-content: center; text-align: center; align-items: baseline; line-height: 1.25; margin-top: -2px; font-size: 13px;&quot;&gt;&lt;span&gt;&lt;font style=&quot;font-size: 13px;&quot; color=&quot;#ffffff&quot;&gt;- reviews: List&amp;lt;Review&amp;gt;&lt;br&gt;&lt;/font&gt;&lt;/span&gt;&lt;/div&gt;&lt;div style=&quot;display: flex; justify-content: center; text-align: center; align-items: baseline; line-height: 1.25; margin-top: -2px; font-size: 13px;&quot;&gt;&lt;font style=&quot;font-size: 13px;&quot; color=&quot;#ffffff&quot;&gt;&lt;font style=&quot;font-size: 13px;&quot;&gt;- rating: String&lt;/font&gt;&lt;/font&gt;&lt;/div&gt;" style="part=1;html=1;resizeHeight=0;verticalAlign=middle;spacingLeft=4;spacingRight=4;overflow=hidden;rotatable=0;points=[[0,0.5],[1,0.5]];portConstraint=eastwest;swimlaneFillColor=#ffffff;strokeOpacity=100;whiteSpace=wrap;fontSize=11.7;align=center;" vertex="1" parent="66">
                    <mxGeometry y="25" width="490" height="145" as="geometry"/>
                </mxCell>
                <mxCell id="68" value="" style="line;strokeWidth=1;align=left;verticalAlign=middle;spacingTop=-1;spacingLeft=3;spacingRight=3;rotatable=0;labelPosition=right;points=[];portConstraint=eastwest;" vertex="1" parent="66">
                    <mxGeometry y="170" width="490" height="8" as="geometry"/>
                </mxCell>
                <mxCell id="69" value="+ Movie(imdbId: String, title: String, releaseDate: String, trailerLink: String, poster: String, backdrops: List&amp;lt;String&amp;gt;, genres: List&amp;lt;String&amp;gt;, rating: String)" style="part=1;resizeHeight=0;align=left;verticalAlign=middle;spacingLeft=4;spacingRight=4;rotatable=0;points=[[0,0.5],[1,0.5]];portConstraint=eastwest;swimlaneFillColor=#ffffff;strokeOpacity=100;whiteSpace=wrap;overflow=block;blockSpacing=1;html=1;fontSize=13;" vertex="1" parent="66">
                    <mxGeometry y="178" width="490" height="72" as="geometry"/>
                </mxCell>
                <UserObject label="" lucidchartObjectId="UC00ZEKNNDzq" id="70">
                    <mxCell style="html=1;jettySize=18;whiteSpace=wrap;fontSize=13;strokeOpacity=100;strokeWidth=0.8;rounded=1;arcSize=24;edgeStyle=orthogonalEdgeStyle;startArrow=none;endArrow=block;endFill=1;exitX=0.5;exitY=1.003;exitPerimeter=0;entryX=1.003;entryY=0.5;entryPerimeter=0;" edge="1" parent="1" source="66" target="63">
                        <mxGeometry width="100" height="100" relative="1" as="geometry">
                            <Array as="points"/>
                        </mxGeometry>
                    </mxCell>
                </UserObject>
                <mxCell id="75" value="Text" style="edgeLabel;html=1;align=center;verticalAlign=middle;resizable=0;points=[];fontColor=#FFFFFF;" vertex="1" connectable="0" parent="70">
                    <mxGeometry x="-0.9136" y="2" relative="1" as="geometry">
                        <mxPoint as="offset"/>
                    </mxGeometry>
                </mxCell>
                <UserObject label="" lucidchartObjectId="6C00FuW2-vFc" id="71">
                    <mxCell style="html=1;jettySize=18;whiteSpace=wrap;fontSize=13;strokeOpacity=100;strokeWidth=0.8;rounded=1;arcSize=24;edgeStyle=orthogonalEdgeStyle;startArrow=none;endArrow=block;endFill=1;exitX=0.848;exitY=-0.008;exitPerimeter=0;entryX=0.607;entryY=1.003;entryPerimeter=0;" edge="1" parent="1" source="50" target="66">
                        <mxGeometry width="100" height="100" relative="1" as="geometry">
                            <Array as="points"/>
                        </mxGeometry>
                    </mxCell>
                </UserObject>
            </root>
        </mxGraphModel>
    </diagram>
</mxfile>